# xmcd
#
# Track frame offsets: 
#        150
#        13850
#        29525
#        44425
#        56587
#        71612
#        86012
#        98787
#        118925
#        135350
#        148712
#        163340
#
# Disc length: 2371 seconds
#
# Revision: 1
# Processed by: cddbd v1.5.2PL0 Copyright (c) Steve Scherf et al.
# Submitted via: ExactAudioCopy v1.0b3
#
DISCID=ad09410c
DTITLE=The Derailers - Here Come The Derailers
DYEAR=2001
DGENRE=Country
TTITLE0=More of Your Love
TTITLE1=Bar Exam
TTITLE2=You Know What She's Like
TTITLE3=Your Guess Is Good As  Mine
TTITLE4=I See My Baby
TTITLE5=Country A Go-Go
TTITLE6=I'd Follow You Anywhere
TTITLE7=All the Rage In Paris
TTITLE8=My Angel's Gettin' Tired
TTITLE9=Mohair Sam
TTITLE10=If it's Really Got to Be This Way
TTITLE11=There Goes the Bride
EXTD=
EXTT0=
EXTT1=
EXTT2=
EXTT3=
EXTT4=
EXTT5=
EXTT6=
EXTT7=
EXTT8=
EXTT9=
EXTT10=
EXTT11=
PLAYORDER=
